# xmcd CD database file
#
# Track frame offsets:
#	150
#	12174
#	32260
#	46529
#	70175
#	83498
#	100216
#	122357
#	145114
#	164427
#	178027
#
# Disc length: 3060 seconds
#
# Revision: 1
# Processed by: cddbd v1.5.2PL0 Copyright (c) Steve Scherf et al.
# Submitted via: CDex 1.51
#
DISCID=770bf20b
DTITLE=Chris Cotton - The Big Sea
DYEAR=2007
DGENRE=Blues
TTITLE0=Blues and Sadness
TTITLE1=Heartbreaking Mind
TTITLE2=Life Shoudn't Be This Way
TTITLE3=44 Pistol Mama
TTITLE4=(I) The Gambler
TTITLE5=(II) The Angels
TTITLE6=(III) The Last Man
TTITLE7=What Would You Do?
TTITLE8=Going Home
TTITLE9=The Big Sea
TTITLE10=At the Farm of John Henry
EXTD=YEAR: 2007
EXTT0=
EXTT1=
EXTT2=
EXTT3=
EXTT4=
EXTT5=
EXTT6=
EXTT7=
EXTT8=
EXTT9=
EXTT10=
PLAYORDER=
